<?xml version="1.0" encoding="utf-8"?>
<!-- Generator: Adobe Illustrator 23.0.6, SVG Export Plug-In . SVG Version: 6.00 Build 0)  -->
<svg version="1.1" id="Calque_1" xmlns="http://www.w3.org/2000/svg" xmlns:xlink="http://www.w3.org/1999/xlink" x="0px" y="0px"
	 viewBox="0 0 401.6 101.3" style="enable-background:new 0 0 401.6 101.3;" xml:space="preserve">
<g>
	<path d="M49.4,0C36.2,0,23.8,5.1,14.5,14.5C5.2,23.8,0,36.2,0,49.4S5.1,75,14.5,84.3c9.3,9.3,21.7,14.5,34.9,14.5
		S75,93.7,84.3,84.3c9.3-9.3,14.5-21.7,14.5-34.9s-5.1-25.6-14.5-34.9C75,5.2,62.6,0,49.4,0z M49.4,88c-21.3,0-38.5-17.3-38.5-38.5
		c-0.1-21.3,17.2-38.6,38.5-38.6s38.5,17.3,38.5,38.5C87.9,70.7,70.6,88,49.4,88z"/>
	<path d="M133.2,45.7c1.9-1.9,4.2-2.8,7.1-2.8c3.7,0,6.5,1.7,8.5,5.2l8.5-4.5c-1.4-3.1-3.5-5.4-6.5-7.1s-6.4-2.5-10.4-2.5
		s-7.6,0.8-10.8,2.5s-5.7,3.9-7.5,6.9c-1.7,2.9-2.6,6.1-2.7,9.7h11C130.5,50,131.4,47.5,133.2,45.7z"/>
	<path d="M177,46.5c1.8-1.7,4.2-2.6,7.3-2.6c0.4,0,1.2,0,2.4,0.1V33.9c-2.9,0-5.4,0.5-7.7,1.4c-2.2,0.9-4,2.3-5.3,4.1v-5h-10.4v18.5
		h11C174.6,50.2,175.5,48.1,177,46.5z"/>
	<path d="M226.4,50.7c0-5.6-1.6-9.8-4.7-12.5c-3.1-2.8-7.6-4.2-13.4-4.2c-3,0-6,0.4-8.8,1.2c-2.9,0.8-5.3,1.9-7.4,3.4l3.9,7.6
		c1.4-1.1,3-1.9,4.9-2.6c1.9-0.6,3.9-0.9,5.9-0.9c2.9,0,5.1,0.6,6.5,1.9s2.2,3.1,2.2,5.5h-8.7c-5.5,0-9.6,1-12.2,3h31.8V50.7
		L226.4,50.7z"/>
	<path d="M275.5,35.4v-9.2h-10.9v9.2h-1.8h-4h-10.6v-1.6c0-3.6,1.7-5.5,5-5.5c1.7,0,3.1,0.4,4.4,1.3l2.9-7.9c-1-0.7-2.2-1.2-3.7-1.5
		s-3-0.5-4.6-0.5c-4.6,0-8.2,1.3-10.7,3.8s-3.8,5.9-3.8,10.2v1.7h-5.9v8.4h5.8v9.3h10.9v-9.3h10.3h4h1.8v9.3h10.9v-9.3h9.4v-8.4
		H275.5z"/>
	<path d="M326.8,43.2c-1.7-3-4-5.2-7-6.8s-6.3-2.4-10-2.4c-3.8,0-7.2,0.8-10.2,2.5c-3.1,1.7-5.5,4-7.2,6.9s-2.6,6.1-2.6,9.7h39.6
		C329.3,49.3,328.4,46,326.8,43.2z M300.6,50.1c0.4-2.4,1.4-4.3,3.1-5.7s3.8-2.1,6.2-2.1c2.4,0,4.5,0.7,6.2,2.1s2.7,3.3,3.1,5.7
		H300.6z"/>
	<path d="M350.2,46.5c1.8-1.7,4.2-2.6,7.3-2.6c0.4,0,1.2,0,2.4,0.1V33.9c-2.9,0-5.4,0.5-7.7,1.4c-2.2,0.9-4,2.3-5.3,4.1v-5h-10.4
		v18.5h11C347.8,50.2,348.6,48.1,350.2,46.5z"/>
	<path d="M389.8,51.2c-2-0.6-4.5-1.1-7.5-1.6c-2.8-0.4-4.8-0.9-6-1.3c-1.3-0.5-1.9-1.3-1.9-2.4c0-1,0.6-1.9,1.7-2.5
		c1.2-0.7,2.9-1,5.2-1c3.9,0,7.5,0.9,10.8,2.8l3.6-7.8c-1.7-1-3.9-1.8-6.5-2.4c-2.6-0.6-5.3-0.9-7.9-0.9c-3.6,0-6.7,0.5-9.3,1.5
		c-2.6,1-4.6,2.5-6,4.3s-2.1,3.9-2.1,6.3c0,2.8,0.7,5,2.2,6.6c0.1,0.1,0.2,0.2,0.4,0.3h27C392.4,52.2,391.1,51.6,389.8,51.2z"/>
	<g>
		<path d="M356.8,99.1c-0.6,0.3-1.3,0.5-2,0.5c-0.6,0-1.2-0.1-1.7-0.4c-0.5-0.2-1-0.6-1.4-1s-0.7-0.9-0.9-1.5s-0.3-1.2-0.3-1.8
			s0.1-1.2,0.3-1.8c0.2-0.6,0.5-1,0.9-1.5c0.4-0.4,0.8-0.7,1.3-1c0.5-0.2,1.1-0.4,1.7-0.4c0.8,0,1.5,0.2,2,0.5
			c0.6,0.4,1.1,0.8,1.5,1.3l1.2-1.2c-0.3-0.3-0.6-0.6-0.9-0.8c-0.3-0.3-0.7-0.5-1.1-0.7s-0.8-0.3-1.3-0.4s-1-0.2-1.5-0.2
			c-0.9,0-1.7,0.2-2.4,0.5s-1.4,0.8-1.9,1.3c-0.5,0.6-1,1.2-1.3,2s-0.5,1.6-0.5,2.4s0.2,1.6,0.5,2.4c0.3,0.7,0.7,1.4,1.3,2
			c0.5,0.6,1.2,1,1.9,1.3c0.7,0.3,1.5,0.5,2.4,0.5c1.1,0,2-0.2,2.8-0.6s1.4-1,2-1.7l-1.1-1.1C357.9,98.4,357.4,98.8,356.8,99.1z"/>
		<path d="M366,89.8c-0.4,0.3-0.8,0.7-1.1,1.1c-0.3,0.4-0.6,0.9-0.8,1.3v-3.1h-1.8v11.8h1.8v-4.7c0-0.9,0.1-1.7,0.4-2.3
			c0.2-0.7,0.6-1.2,1-1.7s0.9-0.8,1.5-1s1.2-0.3,1.8-0.3h0.1v-2c-0.6,0-1.1,0.1-1.6,0.2C366.9,89.3,366.5,89.5,366,89.8z"/>
		<path d="M380.1,90.7c-0.5-0.6-1.1-1-1.7-1.3c-0.7-0.3-1.5-0.5-2.3-0.5s-1.6,0.2-2.3,0.5s-1.3,0.8-1.8,1.3c-0.5,0.6-0.9,1.2-1.2,2
			c-0.3,0.8-0.4,1.6-0.4,2.4c0,0.9,0.2,1.8,0.5,2.5c0.3,0.8,0.7,1.4,1.3,2c0.5,0.5,1.2,1,1.9,1.3c0.7,0.3,1.5,0.4,2.3,0.4
			c1.1,0,2.1-0.2,2.8-0.6c0.8-0.4,1.4-0.9,2-1.6l-1.1-1c-0.5,0.5-1,0.9-1.6,1.2c-0.6,0.3-1.3,0.5-2.1,0.5c-0.5,0-1-0.1-1.5-0.3
			s-0.9-0.4-1.3-0.8c-0.4-0.3-0.7-0.8-0.9-1.3s-0.4-1.1-0.5-1.7h9.3c0-0.1,0-0.2,0-0.3s0-0.2,0-0.3c0-0.9-0.1-1.7-0.4-2.4
			C381,91.9,380.6,91.3,380.1,90.7z M372.2,94.4c0.1-0.6,0.2-1.1,0.4-1.6c0.2-0.5,0.5-0.9,0.8-1.3s0.7-0.6,1.2-0.8
			c0.4-0.2,0.9-0.3,1.4-0.3c0.6,0,1.1,0.1,1.6,0.3c0.4,0.2,0.8,0.5,1.1,0.9c0.3,0.4,0.6,0.8,0.7,1.3c0.2,0.5,0.3,1,0.3,1.5H372.2
			L372.2,94.4z"/>
		<polygon points="395.9,98.6 392.7,89.1 391.2,89.1 388.1,98.6 385,89.1 383.1,89.1 387.2,101 388.8,101 392,91.7 395.2,101 
			396.7,101 400.8,89.1 399,89.1 		"/>
	</g>
	<path d="M126.7,63.3c1.8,2.9,4.3,5.2,7.5,6.9s6.8,2.5,10.8,2.5s7.4-0.8,10.4-2.5s5.1-4,6.5-7l-8.5-4.6c-1.9,3.4-4.7,5.2-8.5,5.2
		c-2.8,0-5.2-0.9-7.1-2.8c-1.9-1.9-2.8-4.4-2.8-7.6c0-0.1,0-0.2,0-0.3h-11c0,0.1,0,0.2,0,0.3C124,57.1,124.9,60.4,126.7,63.3z"/>
	<path d="M179,72.2V54.4c0-0.5,0-0.9,0-1.3h-11v19.1C168,72.2,179,72.2,179,72.2z"/>
	<path d="M195.3,61.3c0,2.2,0.6,4.1,1.7,5.9c1.1,1.7,2.7,3.1,4.9,4.1c2.1,1,4.6,1.5,7.5,1.5c5.6,0,9.4-1.7,11.5-5.2v4.7h10.2V53.2
		h-31.8C196.6,55.1,195.3,57.8,195.3,61.3z M212.6,56.4h7.5v3.8c-0.6,1.7-1.6,2.9-3.1,3.8c-1.4,0.9-3.1,1.3-5,1.3s-3.4-0.4-4.5-1.2
		s-1.6-1.9-1.6-3.3C205.9,57.9,208.1,56.4,212.6,56.4z"/>
	<rect x="242.2" y="53.1" width="10.9" height="19.1"/>
	<path d="M269.2,59.2c0,4.4,1.2,7.8,3.7,10.1c2.4,2.3,5.9,3.4,10.4,3.4c1.7,0,3.4-0.2,4.9-0.6c1.6-0.4,2.9-1,3.9-1.8l-2.9-7.7
		c-1.2,0.9-2.7,1.4-4.4,1.4c-1.5,0-2.6-0.4-3.5-1.3c-0.8-0.9-1.2-2.1-1.2-3.7v-6h-10.9V59.2z"/>
	<path d="M297,63.3c1.8,2.9,4.3,5.2,7.5,6.9c3.3,1.7,7,2.5,11.3,2.5c6.8,0,12-2,15.5-6.1l-5.8-6.3c-1.3,1.3-2.7,2.2-4.2,2.8
		S318,64,316.1,64c-2.8,0-5.2-0.7-7.1-2c-1.9-1.4-3.1-3.2-3.6-5.5h28.5c0.1-1.8,0.2-2.8,0.2-2.9s0-0.3,0-0.4h-39.6
		c0,0.1,0,0.2,0,0.3C294.3,57.1,295.2,60.4,297,63.3z"/>
	<path d="M352.1,72.2V54.4c0-0.5,0-0.9,0-1.3h-11v19.1C341.1,72.2,352.1,72.2,352.1,72.2z"/>
	<path d="M383.5,57.5c2.6,0.3,4.5,0.7,5.8,1.2s1.9,1.2,1.9,2.3c0,2.3-2.3,3.4-6.9,3.4c-2.3,0-4.6-0.3-7-1c-2.4-0.7-4.4-1.5-6.1-2.6
		l-3.6,7.8c1.8,1.2,4.1,2.1,7.1,2.9s6,1.2,9.2,1.2c3.7,0,6.9-0.5,9.5-1.5c2.7-1,4.7-2.4,6.1-4.2c1.4-1.8,2.1-3.9,2.1-6.2
		c0-2.7-0.7-4.9-2.2-6.4c-0.4-0.5-0.9-0.9-1.4-1.3h-27c1.4,1.3,3,2.3,4.9,2.9C377.9,56.5,380.4,57.1,383.5,57.5z"/>
	<polygon points="48.7,78.5 48.7,57 24.2,57 48.7,22.2 48.7,43.7 73.2,43.7 	"/>
</g>
</svg>
